<mxfile host="app.diagrams.net" modified="2023-08-23T06:52:57.026Z" agent="Mozilla/5.0 (X11; Linux x86_64) AppleWebKit/537.36 (KHTML, like Gecko) Chrome/116.0.0.0 Safari/537.36" etag="mVdWBqy_qWZ4BQbXDW83" version="21.6.7" type="github">
  <diagram name="Page-1" id="4aO3OkrLbHmEjABuM7Jf">
    <mxGraphModel dx="1120" dy="491" grid="1" gridSize="10" guides="1" tooltips="1" connect="1" arrows="1" fold="1" page="1" pageScale="1" pageWidth="850" pageHeight="1100" math="0" shadow="0">
      <root>
        <mxCell id="0" />
        <mxCell id="1" parent="0" />
        <mxCell id="Vcn6iy0yX7FqiClO-b2t-5" value="" style="edgeStyle=orthogonalEdgeStyle;rounded=0;orthogonalLoop=1;jettySize=auto;html=1;" edge="1" parent="1" source="Vcn6iy0yX7FqiClO-b2t-1" target="Vcn6iy0yX7FqiClO-b2t-4">
          <mxGeometry relative="1" as="geometry" />
        </mxCell>
        <mxCell id="Vcn6iy0yX7FqiClO-b2t-1" value="Start" style="ellipse;whiteSpace=wrap;html=1;" vertex="1" parent="1">
          <mxGeometry x="340" y="30" width="80" height="30" as="geometry" />
        </mxCell>
        <mxCell id="Vcn6iy0yX7FqiClO-b2t-4" value="-Connect to wifi&amp;nbsp;&lt;br&gt;-Connect to mqtt&amp;nbsp;" style="rounded=0;whiteSpace=wrap;html=1;" vertex="1" parent="1">
          <mxGeometry x="320" y="110" width="120" height="60" as="geometry" />
        </mxCell>
        <mxCell id="Vcn6iy0yX7FqiClO-b2t-6" value="" style="rounded=0;whiteSpace=wrap;html=1;" vertex="1" parent="1">
          <mxGeometry x="320" y="200" width="120" height="60" as="geometry" />
        </mxCell>
      </root>
    </mxGraphModel>
  </diagram>
</mxfile>
